<?xml version="1.0" encoding="UTF-8"?>
<svg width="95px" height="63px" viewBox="0 0 95 63" version="1.1" xmlns="http://www.w3.org/2000/svg" xmlns:xlink="http://www.w3.org/1999/xlink">
    <!-- Generator: Sketch 45.2 (43514) - http://www.bohemiancoding.com/sketch -->
    <title>Logo</title>
    <desc>Created with Sketch.</desc>
    <defs></defs>
    <g id="Symbols" stroke="none" stroke-width="1" fill="none" fill-rule="evenodd" opacity="0.800000012">
        <g id="Testimonials/Testimonials-1" transform="translate(-673.000000, -229.000000)" fill="#000000">
            <g id="Testimonials">
                <g id="Logo" transform="translate(583.000000, 229.000000)">
                    <g transform="translate(90.000000, 0.000000)" id="Shape">
                        <path d="M94.1159358,51.1546524 L91.3988503,51.1546524 L89.9907834,51.1546524 C89.8625936,50.4707487 89.663992,49.988984 89.3926203,49.7177807 C88.9512834,49.2766123 88.1983155,49.0490374 87.158984,49.0490374 C86.1348128,49.0490374 85.4239572,49.2191711 85.0264171,49.561123 C84.726746,49.8173342 84.5699198,50.1725936 84.5699198,50.6139305 C84.5699198,51.238877 85.4391176,51.7374866 87.158984,52.1215508 C89.1231016,52.5477273 90.5315053,52.9181471 91.3988503,53.2164706 C91.6264251,53.3023797 91.8250267,53.3731283 91.9682086,53.443877 C93.7185642,54.2692781 94.5859091,55.5225401 94.5859091,57.2004626 C94.5859091,59.2486364 93.7320401,60.7427807 92.0389572,61.6812112 C91.8250267,61.7957567 91.6264251,61.8951417 91.3988503,61.9945267 C90.3039305,62.4645 89.0237166,62.7053824 87.5868449,62.7053824 C85.4391176,62.7053824 83.7024064,62.3213182 82.3800802,61.5666658 C81.5481096,61.0832166 80.9263636,60.475115 80.5119786,59.742361 C80.0975936,59.0094385 79.8904011,58.1537166 79.8904011,57.1716578 L84.2146604,57.1716578 C84.2146604,57.9113182 84.4856952,58.4956684 85.0112567,58.893377 C85.5385027,59.3060775 86.4346524,59.520008 87.6997059,59.520008 C88.6531283,59.520008 89.363984,59.3195535 89.8339572,58.9220134 C90.2045455,58.6086979 90.3746791,58.2665775 90.3746791,57.8692059 C90.3746791,57.2004626 89.5223262,56.6749011 87.8277273,56.3043128 C85.2961043,55.7635909 83.7025749,55.322254 83.0488235,55.0089385 C81.3137968,54.1986979 80.4599278,52.9472888 80.4599278,51.2104091 C80.4599278,49.8173342 80.9010963,48.6365053 81.8108904,47.669607 C82.949607,46.4599733 84.6559973,45.8621471 86.9182701,45.8621471 C88.7813182,45.8621471 90.2754626,46.1333503 91.3990187,46.6589118 C91.4984037,46.7010241 91.5844813,46.7448209 91.6702219,46.8020936 C92.4804626,47.241746 93.0917647,47.8262647 93.5012647,48.5522807 C93.9104278,49.2764439 94.1159358,50.1454733 94.1159358,51.1546524 L94.1159358,51.1546524 Z"></path>
                        <polygon points="69.6756417 21.522754 81.3559091 40.9836898 69.6756417 40.9836898 62.5923529 40.9836898 51.4393316 22.3902674 42.9899198 8.32139037 51.4393316 3.24264706 56.7589572 0.0421122995"></polygon>
                        <path d="M78.1553743,54.4966845 L78.1553743,62.4778075 L74.2709358,62.4778075 L74.2709358,61.5953021 C72.9619171,62.4491711 71.3970241,62.9477807 69.7192701,62.9477807 L69.6754733,62.9477807 C65.0380668,62.9191444 61.2681738,59.1340909 61.2681738,54.4966845 C61.2681738,49.8594465 65.0380668,46.0760775 69.6754733,46.0472727 L69.7192701,46.0472727 C71.3970241,46.0472727 72.9619171,46.5460508 74.2709358,47.3984037 L74.2709358,46.4736176 L78.1553743,46.4736176 L78.1553743,54.4966845 L78.1553743,54.4966845 Z M74.2709358,55.3793583 L74.2709358,53.6156952 C73.8582353,51.4814439 71.9665508,49.8592781 69.7192701,49.8592781 L69.6754733,49.8592781 C67.1302059,49.8744385 65.0667032,51.9514171 65.0667032,54.496516 C65.0667032,57.0434679 67.1302059,59.1204465 69.6754733,59.1490829 L69.7192701,59.1490829 C71.9665508,59.1492513 73.8582353,57.5136096 74.2709358,55.3793583 L74.2709358,55.3793583 Z"></path>
                        <path d="M59.9173797,54.4966845 L59.9173797,62.4778075 L56.0346257,62.4778075 L56.0346257,61.5953021 C54.710615,62.4491711 53.1607139,62.9477807 51.4814439,62.9477807 L51.4393316,62.9477807 C46.8019251,62.9191444 43.0320321,59.1340909 43.0320321,54.4966845 C43.0320321,49.8594465 46.8019251,46.0760775 51.4393316,46.0472727 L51.4814439,46.0472727 C53.1608824,46.0472727 54.710615,46.5460508 56.0346257,47.3984037 L56.0346257,40.9836898 L59.9173797,40.9836898 L59.9173797,54.4966845 L59.9173797,54.4966845 Z M56.0346257,55.3793583 L56.0346257,53.6156952 C55.6219251,51.4814439 53.7285561,49.8592781 51.4814439,49.8592781 L51.4393316,49.8592781 C48.8923797,49.8744385 46.8305615,51.9514171 46.8305615,54.496516 C46.8305615,57.0434679 48.8923797,59.1204465 51.4393316,59.1490829 L51.4814439,59.1490829 C53.7285561,59.1492513 55.6219251,57.5136096 56.0346257,55.3793583 L56.0346257,55.3793583 Z"></path>
                        <polygon points="51.4393316 33.3291898 56.0194652 40.9836898 51.4393316 40.9836898 37.269385 40.9836898 26.8575401 23.6570053 26.4027273 22.9023529 26.8575401 22.6328342 40.1869251 14.6079144"></polygon>
                        <rect x="37.2845455" y="46.0471043" width="4.22470588" height="16.4305348"></rect>
                        <rect x="37.2845455" y="41.0679144" width="4.22470588" height="3.71262032"></rect>
                        <path d="M35.3490642,54.4966845 L35.3490642,62.4778075 L31.4663102,62.4778075 L31.4663102,61.5953021 C30.143984,62.4491711 28.5790909,62.9477807 26.8996524,62.9477807 L26.8575401,62.9477807 C22.2201337,62.9191444 18.4502406,59.1340909 18.4502406,54.4966845 C18.4502406,49.8594465 22.2201337,46.0760775 26.8575401,46.0472727 L26.8996524,46.0472727 C28.5790909,46.0472727 30.143984,46.5460508 31.4663102,47.3984037 L31.4663102,40.9836898 L35.3490642,40.9836898 L35.3490642,54.4966845 L35.3490642,54.4966845 Z M31.4663102,55.3793583 L31.4663102,53.6156952 C31.0536096,51.4814439 29.1619251,49.8592781 26.8996524,49.8592781 L26.8575401,49.8592781 C24.3105882,49.8744385 22.2487701,51.9514171 22.2487701,54.496516 C22.2487701,57.0434679 24.3105882,59.1204465 26.8575401,59.1490829 L26.8996524,59.1490829 C29.1619251,59.1492513 31.0536096,57.5136096 31.4663102,55.3793583 L31.4663102,55.3793583 Z"></path>
                        <polygon points="26.8575401 34.5809358 30.6981818 40.9836898 26.8575401 40.9836898 11.9346257 40.9836898 9.8290107 37.4696711 23.6132086 29.1905615"></polygon>
                        <path d="M16.9274599,54.4966845 L16.9274599,62.4778075 L13.0447059,62.4778075 L13.0447059,61.5953021 C11.7206952,62.4491711 10.1558021,62.9477807 8.47804813,62.9477807 L8.43425134,62.9477807 C3.81200535,62.9191444 0.0421122995,59.1340909 0.0421122995,54.4966845 C0.0421122995,49.8594465 3.81200535,46.0760775 8.43425134,46.0472727 L8.47804813,46.0472727 C10.1558021,46.0472727 11.7206952,46.5460508 13.0447059,47.3984037 L13.0447059,46.4736176 L16.9274599,46.4736176 L16.9274599,54.4966845 L16.9274599,54.4966845 Z M13.0447059,55.3793583 L13.0447059,53.6156952 C12.6320053,51.4814439 10.7403209,49.8592781 8.47804813,49.8592781 L8.43425134,49.8592781 C5.90245989,49.8744385 3.84064171,51.9514171 3.84064171,54.496516 C3.84064171,57.0434679 5.90245989,59.1204465 8.43425134,59.1490829 L8.47804813,59.1490829 C10.7403209,59.1492513 12.6320053,57.5136096 13.0447059,55.3793583 L13.0447059,55.3793583 Z"></path>
                    </g>
                </g>
            </g>
        </g>
    </g>
</svg>