<?xml version="1.0" encoding="UTF-8"?>
<svg width="179px" height="109px" viewBox="0 0 179 109" version="1.1" xmlns="http://www.w3.org/2000/svg" xmlns:xlink="http://www.w3.org/1999/xlink">
    <!-- Generator: Sketch 45.2 (43514) - http://www.bohemiancoding.com/sketch -->
    <title>Slice</title>
    <desc>Created with Sketch.</desc>
    <defs></defs>
    <g id="Page-1" stroke="none" stroke-width="1" fill="none" fill-rule="evenodd" opacity="0.800000012">
        <g id="Logo" transform="translate(17.000000, 41.000000)" fill="#000000">
            <path d="M76.4177019,11.295 C76.4177019,12.915 75.1118012,14.22 73.4906832,14.22 C71.8695652,14.22 70.5636646,12.915 70.5636646,11.295 C70.5636646,9.675 71.8245342,8.37 73.4906832,8.37 C75.1568323,8.415 76.4177019,9.72 76.4177019,11.295 L76.4177019,11.295 Z M64.3493789,17.19 L64.3493789,17.91 C64.3493789,17.91 62.9534161,16.11 59.9813665,16.11 C55.0729814,16.11 51.2453416,19.845 51.2453416,25.02 C51.2453416,30.15 55.0279503,33.93 59.9813665,33.93 C62.9984472,33.93 64.3493789,32.085 64.3493789,32.085 L64.3493789,32.85 C64.3493789,33.21 64.6195652,33.48 64.9798137,33.48 L68.6273292,33.48 L68.6273292,16.56 L64.9798137,16.56 C64.6195652,16.56 64.3493789,16.875 64.3493789,17.19 L64.3493789,17.19 Z M64.3493789,28.035 C63.673913,29.025 62.3229814,29.88 60.7018634,29.88 C57.8198758,29.88 55.613354,28.08 55.613354,25.02 C55.613354,21.96 57.8198758,20.16 60.7018634,20.16 C62.2779503,20.16 63.7189441,21.06 64.3493789,22.005 L64.3493789,28.035 L64.3493789,28.035 Z M71.3291925,16.56 L75.6521739,16.56 L75.6521739,33.48 L71.3291925,33.48 L71.3291925,16.56 L71.3291925,16.56 Z M135.903727,16.11 C132.931677,16.11 131.535714,17.91 131.535714,17.91 L131.535714,8.415 L127.212733,8.415 L127.212733,33.48 L130.860248,33.48 C131.220497,33.48 131.490683,33.165 131.490683,32.85 L131.490683,32.085 L131.490683,32.085 C131.490683,32.085 132.886646,33.93 135.858696,33.93 C140.767081,33.93 144.59472,30.15 144.59472,25.02 C144.59472,19.89 140.767081,16.11 135.903727,16.11 L135.903727,16.11 Z M135.18323,29.835 C133.517081,29.835 132.21118,28.98 131.535714,27.99 L131.535714,21.96 C132.21118,21.06 133.652174,20.115 135.18323,20.115 C138.065217,20.115 140.271739,21.915 140.271739,24.975 C140.271739,28.035 138.065217,29.835 135.18323,29.835 L135.18323,29.835 Z M124.96118,23.445 L124.96118,33.525 L120.638199,33.525 L120.638199,23.94 C120.638199,21.15 119.737578,20.025 117.305901,20.025 C116,20.025 114.649068,20.7 113.793478,21.69 L113.793478,33.48 L109.470497,33.48 L109.470497,16.56 L112.892857,16.56 C113.253106,16.56 113.523292,16.875 113.523292,17.19 L113.523292,17.91 C114.784161,16.605 116.450311,16.11 118.11646,16.11 C120.007764,16.11 121.583851,16.65 122.84472,17.73 C124.375776,18.99 124.96118,20.61 124.96118,23.445 L124.96118,23.445 Z M98.9782609,16.11 C96.0062112,16.11 94.6102484,17.91 94.6102484,17.91 L94.6102484,8.415 L90.2872671,8.415 L90.2872671,33.48 L93.9347826,33.48 C94.2950311,33.48 94.5652174,33.165 94.5652174,32.85 L94.5652174,32.085 L94.5652174,32.085 C94.5652174,32.085 95.9611801,33.93 98.9332298,33.93 C103.841615,33.93 107.669255,30.15 107.669255,25.02 C107.714286,19.89 103.886646,16.11 98.9782609,16.11 L98.9782609,16.11 Z M98.257764,29.835 C96.5916149,29.835 95.2857143,28.98 94.6102484,27.99 L94.6102484,21.96 C95.2857143,21.06 96.7267081,20.115 98.257764,20.115 C101.139752,20.115 103.346273,21.915 103.346273,24.975 C103.346273,28.035 101.139752,29.835 98.257764,29.835 L98.257764,29.835 Z M86.5496894,16.11 C87.8555901,16.11 88.5310559,16.335 88.5310559,16.335 L88.5310559,20.34 C88.5310559,20.34 84.9285714,19.125 82.6770186,21.69 L82.6770186,33.525 L78.3540373,33.525 L78.3540373,16.56 L82.0015528,16.56 C82.3618012,16.56 82.6319876,16.875 82.6319876,17.19 L82.6319876,17.91 C83.4425466,16.965 85.1987578,16.11 86.5496894,16.11 L86.5496894,16.11 Z M41.6537267,31.95 C41.4285714,31.41 41.2034161,30.825 40.9782609,30.33 C40.6180124,29.52 40.257764,28.755 39.9425466,28.035 L39.8975155,27.99 C36.7903727,21.24 33.4580745,14.4 29.9456522,7.65 L29.810559,7.38 C29.4503106,6.705 29.0900621,5.985 28.7298137,5.265 C28.2795031,4.455 27.8291925,3.6 27.1086957,2.79 C25.6677019,0.99 23.5962733,0 21.3897516,0 C19.1381988,0 17.1118012,0.99 15.6257764,2.7 C14.9503106,3.51 14.4549689,4.365 14.0046584,5.175 C13.6444099,5.895 13.2841615,6.615 12.923913,7.29 L12.7888199,7.56 C9.32142857,14.31 5.94409938,21.15 2.83695652,27.9 L2.79192547,27.99 C2.47670807,28.71 2.11645963,29.475 1.75621118,30.285 C1.5310559,30.78 1.30590062,31.32 1.08074534,31.905 C0.495341615,33.57 0.315217391,35.145 0.540372671,36.765 C1.03571429,40.14 3.28726708,42.975 6.39440994,44.235 C7.56521739,44.73 8.7810559,44.955 10.0419255,44.955 C10.4021739,44.955 10.8524845,44.91 11.2127329,44.865 C12.6987578,44.685 14.2298137,44.19 15.7158385,43.335 C17.5621118,42.3 19.318323,40.815 21.2996894,38.655 C23.2810559,40.815 25.0822981,42.3 26.8835404,43.335 C28.3695652,44.19 29.9006211,44.685 31.386646,44.865 C31.7468944,44.91 32.197205,44.955 32.5574534,44.955 C33.818323,44.955 35.0791925,44.73 36.2049689,44.235 C39.3571429,42.975 41.5636646,40.095 42.0590062,36.765 C42.4192547,35.19 42.2391304,33.615 41.6537267,31.95 L41.6537267,31.95 Z M21.3447205,34.29 C18.9130435,31.23 17.3369565,28.35 16.7965839,25.92 C16.5714286,24.885 16.5263975,23.985 16.6614907,23.175 C16.7515528,22.455 17.0217391,21.825 17.3819876,21.285 C18.2375776,20.07 19.6785714,19.305 21.3447205,19.305 C23.0108696,19.305 24.4968944,20.025 25.3074534,21.285 C25.6677019,21.825 25.9378882,22.455 26.0279503,23.175 C26.1630435,23.985 26.1180124,24.93 25.8928571,25.92 C25.3524845,28.305 23.7763975,31.185 21.3447205,34.29 L21.3447205,34.29 Z M39.3121118,36.405 C38.9968944,38.745 37.4208075,40.77 35.2142857,41.67 C34.1335404,42.12 32.9627329,42.255 31.7919255,42.12 C30.6661491,41.985 29.5403727,41.625 28.3695652,40.95 C26.7484472,40.05 25.1273292,38.655 23.2360248,36.585 C26.2080745,32.94 28.0093168,29.61 28.6847826,26.64 C29,25.245 29.0450311,23.985 28.9099379,22.815 C28.7298137,21.69 28.3245342,20.655 27.6940994,19.755 C26.2981366,17.73 23.9565217,16.56 21.3447205,16.56 C18.7329193,16.56 16.3913043,17.775 14.9953416,19.755 C14.3649068,20.655 13.9596273,21.69 13.7795031,22.815 C13.5993789,23.985 13.6444099,25.29 14.0046584,26.64 C14.6801242,29.61 16.5263975,32.985 19.4534161,36.63 C17.6071429,38.7 15.9409938,40.095 14.3198758,40.995 C13.1490683,41.67 12.0232919,42.03 10.8975155,42.165 C9.68167702,42.3 8.51086957,42.12 7.47515528,41.715 C5.26863354,40.815 3.69254658,38.79 3.37732919,36.45 C3.24223602,35.325 3.33229814,34.2 3.7826087,32.94 C3.91770186,32.49 4.14285714,32.04 4.36801242,31.5 C4.68322981,30.78 5.04347826,30.015 5.40372671,29.25 L5.44875776,29.16 C8.55590062,22.455 11.8881988,15.615 15.3555901,8.955 L15.4906832,8.685 C15.8509317,8.01 16.2111801,7.29 16.5714286,6.615 C16.931677,5.895 17.3369565,5.22 17.8322981,4.635 C18.7779503,3.555 20.0388199,2.97 21.4347826,2.97 C22.8307453,2.97 24.0916149,3.555 25.0372671,4.635 C25.5326087,5.22 25.9378882,5.895 26.2981366,6.615 C26.6583851,7.29 27.0186335,8.01 27.378882,8.685 L27.5139752,8.955 C30.9363354,15.66 34.2686335,22.5 37.3757764,29.205 L37.3757764,29.25 C37.7360248,29.97 38.0512422,30.78 38.4114907,31.5 C38.636646,32.04 38.8618012,32.49 38.9968944,32.94 C39.3571429,34.11 39.492236,35.235 39.3121118,36.405 L39.3121118,36.405 Z" id="Shape"></path>
        </g>
    </g>
</svg>