<?xml version="1.0" encoding="UTF-8"?>
<svg width="24px" height="24px" viewBox="0 0 24 24" version="1.1" xmlns="http://www.w3.org/2000/svg" xmlns:xlink="http://www.w3.org/1999/xlink">
    <!-- Generator: Sketch 45.2 (43514) - http://www.bohemiancoding.com/sketch -->
    <title>dribble</title>
    <desc>Created with Sketch.</desc>
    <defs></defs>
    <g id="Symbols" stroke="none" stroke-width="1" fill="none" fill-rule="evenodd">
        <g id="Social-White" transform="translate(-81.000000, 0.000000)" fill="#FFFFFF">
            <g id="social-white">
                <path d="M96.4697078,20.7342133 C96.0494524,18.3226758 95.3490372,15.8311246 94.3684413,13.2594851 L94.3384232,13.2594851 L94.3084051,13.2744946 C94.1483078,13.3345328 93.9331803,13.4170842 93.6630161,13.5221512 C93.3928519,13.6272182 92.8875524,13.8723708 92.1471024,14.2576164 C91.4066524,14.6428621 90.7212461,15.0531175 90.090863,15.488395 C89.4604799,15.9236725 88.8050914,16.4965291 88.1246779,17.2069821 C87.4442644,17.917435 86.9289589,18.657896 86.5787461,19.4283873 L86.3536104,19.2632828 C88.1947293,20.7642398 90.2859689,21.514707 92.6273919,21.514707 C93.9481946,21.514707 95.2289537,21.254545 96.4697078,20.7342133 L96.4697078,20.7342133 Z M93.6930342,11.6234502 C93.4829065,11.1331376 93.2177493,10.5777918 92.8975547,9.95739631 C89.7856635,10.8879896 86.4186677,11.3532793 82.7964664,11.3532793 C82.7864603,11.4233239 82.7814573,11.5283894 82.7814573,11.6684787 C82.7814573,12.9092697 83.0015878,14.0925064 83.4418554,15.2182241 C83.8821229,16.3439418 84.5024907,17.3520694 85.3029771,18.2426372 C85.8032812,17.3520694 86.4211474,16.5190508 87.1565944,15.7435564 C87.8920413,14.968062 88.6049639,14.3451742 89.2953835,13.8748743 C89.9858031,13.4045745 90.6386901,12.9993222 91.2540641,12.6591053 C91.8694381,12.3188884 92.3672331,12.0787389 92.7474642,11.9386496 L93.3027989,11.7435261 C93.3428233,11.7335198 93.4078618,11.7160089 93.4979166,11.6909929 C93.5879713,11.665977 93.6530098,11.6434629 93.6930342,11.6234502 L93.6930342,11.6234502 Z M92.0870662,8.44143737 C90.8863364,6.31007852 89.6656129,4.41890114 88.4248588,2.7678485 C87.0440196,3.41826317 85.8733257,4.34884252 84.9127419,5.55961445 C83.9521581,6.77038639 83.3117786,8.1312336 82.991584,9.64219692 C86.0134204,9.64219692 89.0452175,9.24194774 92.0870662,8.44143737 L92.0870662,8.44143737 Z M102.353254,13.2294661 C100.251977,12.6290833 98.2057641,12.483993 96.214554,12.7941907 C97.085083,15.1857155 97.7254626,17.5321763 98.1357119,19.8336436 C99.2463869,19.0831651 100.171936,18.1350749 100.912386,16.9893444 C101.652836,15.843614 102.13312,14.5903337 102.353254,13.2294661 L102.353254,13.2294661 Z M90.2709715,2.10743075 C90.2609655,2.10743075 90.2509595,2.11243386 90.2409535,2.12244024 C90.2509595,2.11243386 90.2609655,2.10743075 90.2709715,2.10743075 L90.2709715,2.10743075 Z M99.126309,4.28380743 C97.275184,2.64276117 95.1089,1.82225035 92.6273919,1.82225035 C91.8669297,1.82225035 91.09147,1.91730953 90.3009896,2.10743075 C91.6117863,3.80851528 92.8425158,5.71970512 93.9932151,7.8410576 C94.6836347,7.58089173 95.3340202,7.27820329 95.9443911,6.93298319 C96.5547621,6.58776309 97.0375483,6.28007153 97.3927641,6.00989929 C97.74798,5.73972704 98.0756742,5.45454949 98.3758567,5.15435811 C98.6760391,4.85416672 98.8636503,4.65154057 98.9386959,4.54647358 C99.0137415,4.4414066 99.0762786,4.35385209 99.126309,4.28380743 L99.126309,4.28380743 Z M102.473326,11.5634122 C102.443308,9.24193213 101.697866,7.19065508 100.236978,5.40951951 L100.221969,5.424529 C100.131915,5.54460556 100.036858,5.66718187 99.9367975,5.79226162 C99.8367367,5.91734136 99.6191077,6.13997997 99.283904,6.46018412 C98.9487003,6.78038826 98.5934897,7.08307671 98.2182617,7.36825853 C97.8430337,7.65344035 97.3427371,7.9786428 96.717357,8.34387566 C96.091977,8.70910852 95.434087,9.03180942 94.7436674,9.31198805 C94.9938194,9.84232617 95.2139499,10.3176221 95.4040655,10.73789 C95.4240776,10.7979283 95.4565969,10.8854828 95.5016243,11.0005562 C95.5466516,11.1156295 95.5841739,11.1981809 95.6141921,11.2482128 C95.974411,11.1981809 96.347132,11.1631591 96.7323661,11.1431464 C97.1176002,11.1231336 97.4853182,11.1131274 97.835531,11.1131274 C98.1857438,11.1131274 98.5309485,11.120632 98.8711552,11.1356416 C99.211362,11.1506512 99.5315518,11.1706636 99.8317342,11.1956796 C100.131917,11.2206955 100.414584,11.2482127 100.679745,11.2782318 C100.944906,11.308251 101.185049,11.3407712 101.40018,11.3757935 C101.61531,11.4108159 101.797919,11.4408345 101.94801,11.4658505 C102.098101,11.4908664 102.223175,11.5133805 102.323236,11.5333932 L102.473326,11.5634122 Z M104.15434,11.6684787 C104.15434,13.759812 103.639034,15.6885127 102.608408,17.4546387 C101.577781,19.2207648 100.179453,20.6191353 98.4133793,21.6497924 C96.647306,22.6804495 94.7186628,23.1957703 92.6273919,23.1957703 C90.5361209,23.1957703 88.6074777,22.6804495 86.8414044,21.6497924 C85.0753311,20.6191353 83.6770022,19.2207648 82.6463759,17.4546387 C81.6157495,15.6885127 81.1004441,13.759812 81.1004441,11.6684787 C81.1004441,9.57714533 81.6157495,7.64844459 82.6463759,5.88231858 C83.6770022,4.11619258 85.0753311,2.717822 86.8414044,1.6871649 C88.6074777,0.656507804 90.5361209,0.141186983 92.6273919,0.141186983 C94.7186628,0.141186983 96.647306,0.656507804 98.4133793,1.6871649 C100.179453,2.717822 101.577781,4.11619258 102.608408,5.88231858 C103.639034,7.64844459 104.15434,9.57714533 104.15434,11.6684787 L104.15434,11.6684787 Z" id="dribble"></path>
            </g>
        </g>
    </g>
</svg>