<?xml version="1.0" encoding="UTF-8"?>
<svg width="48px" height="66px" viewBox="0 0 48 66" version="1.1" xmlns="http://www.w3.org/2000/svg" xmlns:xlink="http://www.w3.org/1999/xlink">
    <!-- Generator: Sketch 45.2 (43514) - http://www.bohemiancoding.com/sketch -->
    <title>Icon 2</title>
    <desc>Created with Sketch.</desc>
    <defs></defs>
    <g id="Symbols" stroke="none" stroke-width="1" fill="none" fill-rule="evenodd" stroke-linecap="round" stroke-linejoin="round">
        <g id="Feature/Feature-1" transform="translate(-550.000000, -77.000000)" stroke="#E8008A" stroke-width="2" fill="#FFFFFF">
            <g id="Features">
                <g id="Feature" transform="translate(459.000000, 78.000000)">
                    <g id="Icon-2" transform="translate(92.000000, 0.000000)">
                        <path d="M22.6662066,63.9983238 C22.7580324,63.9994402 22.8499921,64 22.9420825,64 C35.2227814,64 45.1782548,54.0445192 45.1782548,41.7638277 C45.1782548,8.22757677 12.6670903,0 12.6670903,0 C12.6670903,0 16.5406349,9.92410517 11.4669051,19.1622917 C6.39317528,28.4004782 -1.3986071e-09,30.5388899 0,41.7638277 C1.53014493e-09,54.0444502 9.95547344,64 22.2361723,64 C22.2929396,64 22.3496573,63.9997873 22.4063245,63.9993626 C16.76753,63.9267374 13.6943681,57.6573104 13.6943681,49.9340659 C13.6943681,42.1656651 20.9426511,35.8681319 22.5054945,35.8681319 C24.0683379,35.8681319 31.635989,42.1656651 31.635989,49.9340659 C31.635989,57.6292052 28.2717804,63.8810887 22.6662066,63.9983238 Z" id="Layer-1"></path>
                    </g>
                </g>
            </g>
        </g>
    </g>
</svg>