<?xml version="1.0" encoding="UTF-8"?>
<svg width="162px" height="36px" viewBox="0 0 162 36" version="1.1" xmlns="http://www.w3.org/2000/svg" xmlns:xlink="http://www.w3.org/1999/xlink">
    <!-- Generator: Sketch 45.2 (43514) - http://www.bohemiancoding.com/sketch -->
    <title>Replacer</title>
    <desc>Created with Sketch.</desc>
    <defs></defs>
    <g id="Symbols" stroke="none" stroke-width="1" fill="none" fill-rule="evenodd">
        <g id="Navbars/Navbar-01" transform="translate(-40.000000, -30.000000)" fill="#FFFFFF">
            <g id="Navbar">
                <path d="M64.56,58.8 L56.16,49.28 C60.48,48.32 63.2,45.16 63.2,40.76 C63.2,35.52 59.36,32 53.56,32 L40,32 L40,58.8 L46.6,58.8 L46.6,49.6 L48.52,49.6 L56.6,58.8 L64.56,58.8 Z M46.6,44.08 L46.6,37.64 L52.84,37.64 C55.2,37.64 56.72,38.92 56.72,40.84 C56.72,42.8 55.2,44.08 52.84,44.08 L46.6,44.08 Z M84.28,48.76 C84.16,42.2 79.6,38.12 73.92,38.12 C68.08,38.12 63.28,42.44 63.28,48.76 C63.28,55.12 68.08,59.4 73.88,59.4 C78.48,59.4 82.12,57.36 83.84,53.12 L78.16,51.96 C77.08,53.92 75.36,54.28 73.88,54.28 C71.72,54.28 70.08,52.8 69.56,50.4 L84.28,50.4 L84.28,48.76 Z M73.92,43.32 C75.76,43.32 77.36,44.32 77.96,46.48 L69.68,46.48 C70.28,44.44 72.12,43.32 73.92,43.32 L73.92,43.32 Z M98.6,38.12 C96,38.12 93.92,38.92 92.36,40.32 L92.36,38.72 L85.96,38.72 L85.96,65.6 L92.36,65.6 L92.36,57.2 C93.92,58.6 96,59.4 98.6,59.4 C103.92,59.4 108.4,55.12 108.4,48.76 C108.4,42.44 103.92,38.12 98.6,38.12 L98.6,38.12 Z M97.28,53.96 C94.68,53.96 92.36,51.88 92.36,48.76 C92.36,45.68 94.68,43.56 97.28,43.56 C100.08,43.56 102.12,45.68 102.12,48.76 C102.12,51.88 100.08,53.96 97.28,53.96 L97.28,53.96 Z M116.48,58.8 L116.48,30 L110.08,30 L110.08,58.8 L116.48,58.8 Z M140.6,38.72 L134.2,38.72 L134.2,40.32 C132.64,38.92 130.56,38.12 127.96,38.12 C122.64,38.12 118.16,42.44 118.16,48.76 C118.16,55.12 122.64,59.4 127.96,59.4 C130.56,59.4 132.64,58.6 134.2,57.2 L134.2,58.8 L140.6,58.8 L140.6,38.72 Z M129.28,53.96 C126.48,53.96 124.44,51.88 124.44,48.76 C124.44,45.68 126.48,43.56 129.28,43.56 C131.88,43.56 134.2,45.68 134.2,48.76 C134.2,51.88 131.88,53.96 129.28,53.96 L129.28,53.96 Z M153.24,53.8 C150.36,53.8 148.44,51.72 148.44,48.76 C148.44,45.84 150.36,43.72 153.24,43.72 C155.28,43.72 156.92,44.84 157.48,47.28 L163.48,45.84 C162.36,41.12 158.12,38.12 153.24,38.12 C147.24,38.12 142.28,42.44 142.28,48.76 C142.28,55.12 147.24,59.4 153.24,59.4 C158.24,59.4 162.48,56.32 163.48,51.56 L157.6,50.28 C156.92,52.72 155.28,53.8 153.24,53.8 L153.24,53.8 Z M184.84,48.76 C184.72,42.2 180.16,38.12 174.48,38.12 C168.64,38.12 163.84,42.44 163.84,48.76 C163.84,55.12 168.64,59.4 174.44,59.4 C179.04,59.4 182.68,57.36 184.4,53.12 L178.72,51.96 C177.64,53.92 175.92,54.28 174.44,54.28 C172.28,54.28 170.64,52.8 170.12,50.4 L184.84,50.4 L184.84,48.76 Z M174.48,43.32 C176.32,43.32 177.92,44.32 178.52,46.48 L170.24,46.48 C170.84,44.44 172.68,43.32 174.48,43.32 L174.48,43.32 Z M199.84,38.44 C196.56,38.44 194.36,40.16 192.92,42.56 L192.92,38.72 L186.52,38.72 L186.52,58.8 L192.92,58.8 L192.92,52.52 C192.92,47.32 195.36,45 199.84,45 L201,45 L201.28,38.6 C200.8,38.48 200.4,38.44 199.84,38.44 L199.84,38.44 Z" id="Replacer"></path>
            </g>
        </g>
    </g>
</svg>