<?xml version="1.0" encoding="UTF-8"?>
<svg width="179px" height="109px" viewBox="0 0 179 109" version="1.1" xmlns="http://www.w3.org/2000/svg" xmlns:xlink="http://www.w3.org/1999/xlink">
    <!-- Generator: Sketch 45.2 (43514) - http://www.bohemiancoding.com/sketch -->
    <title>Slice</title>
    <desc>Created with Sketch.</desc>
    <defs></defs>
    <g id="Page-1" stroke="none" stroke-width="1" fill="none" fill-rule="evenodd" opacity="0.800000012">
        <g id="Logo" transform="translate(26.000000, 49.000000)" fill="#000000">
            <path d="M28.9216977,30.6224566 C28.7963512,27.8720992 26.8743709,24.1044365 23.1593901,19.3231018 C19.3190627,14.329223 16.0691358,11.8313753 13.4096092,11.8313753 C11.7637546,11.8313753 10.3704097,13.3518833 9.23139117,16.394716 C8.47204546,19.1832224 7.71088314,21.9699121 6.95153743,24.7584185 C6.10681074,27.7994345 5.2003191,29.3217592 4.23024587,29.3217592 C4.01951836,29.3217592 3.27833881,28.8766881 2.01215709,27.9901793 L0.684210413,29.7032487 C2.07755529,30.9276482 3.452734,32.1538644 4.80611331,33.3818971 C6.66632863,34.9877861 8.06149013,35.8343294 8.9934144,35.9197104 C11.1915204,36.1304379 12.5448997,34.6262794 13.0535523,31.4090516 C13.6021705,27.9356808 13.9818434,25.7757237 14.1943875,24.930997 C14.8283867,22.0498432 15.5259674,20.6110829 16.2871298,20.6110829 C16.8793467,20.6110829 17.7676722,21.5466405 18.9521062,23.4141222 C20.1347236,25.2834206 20.7687227,26.7058314 20.8541037,27.6813545 C21.023049,29.2945099 20.3890499,30.1029043 18.9521062,30.1029043 C18.2745082,30.1029043 17.5769275,29.9484919 16.8611806,29.6396671 C18.2490756,34.1884749 20.9013357,36.3992972 24.817961,36.2739506 C27.7209142,36.1885697 29.0888264,34.3047383 28.9216977,30.6224566" id="Shape" transform="translate(14.809778, 24.055185) scale(1, -1) translate(-14.809778, -24.055185) "></path>
            <path d="M40.8405187,33.0054517 C40.7987365,31.9518141 40.2701011,30.9417753 39.2527959,29.9735187 C38.1119607,28.8799156 36.7585814,28.333114 35.1944746,28.333114 C32.7838244,28.333114 31.6193732,29.384935 31.7047542,31.4885769 C31.7447198,32.58218 32.3914353,33.6358176 33.6376342,34.6458564 C34.8856498,35.6540786 36.2699115,36.1609146 37.7940528,36.1609146 C38.6823783,36.1609146 39.4217412,35.8121242 40.0157748,35.1181767 C40.6061752,34.4242292 40.8823009,33.719382 40.8405187,33.0054517 L40.8405187,33.0054517 Z M46.3593997,10.4448911 C45.1749658,8.2068195 43.5472774,6.17765884 41.4745179,4.36104231 C38.6405961,1.91042662 35.8084909,0.68421046 32.9745692,0.68421046 C31.6611554,0.68421046 30.6583831,1.10748211 29.9608024,1.95402541 C29.2632216,2.7987521 28.934414,3.89598848 28.9780128,5.24936779 C29.0179784,6.64271267 29.4521497,8.79903648 30.2768936,11.7165226 C31.1016375,14.6321921 31.5158261,16.196299 31.5158261,16.4070265 C31.5158261,17.5060795 31.1343366,18.0565143 30.3731743,18.0565143 C30.1206646,18.0565143 29.3994678,17.6114433 28.2150339,16.7249344 L26.7562908,18.4380038 C28.1096701,19.6624033 29.4630494,20.8886195 30.8164287,22.1166522 C32.6348619,23.7225412 33.9882412,24.5690845 34.8783833,24.6544655 C36.2735448,24.7798121 37.2981165,24.3692567 37.9539151,23.4209829 C38.607897,22.4708925 38.8513236,21.2410431 38.6841949,19.7241683 C38.1337601,17.1536559 37.5415431,13.889196 36.9075439,9.92897196 C36.8639452,8.11598867 37.5197437,7.21131364 38.873123,7.21131364 C39.46534,7.21131364 40.5226108,7.83622972 42.0449355,9.08787851 C43.3147504,10.1306164 44.3502219,11.1115893 45.154983,12.0307973 L46.3593997,10.4448911 L46.3593997,10.4448911 Z" id="Shape" transform="translate(36.557845, 18.422563) scale(1, -1) translate(-36.557845, -18.422563) "></path>
            <path d="M85.9761729,21.9430231 C84.791739,19.703135 83.1640506,17.6757909 81.0912911,15.8591744 C78.2573693,13.4085587 75.4234475,12.1823426 72.5913424,12.1823426 C69.840985,12.1823426 68.509405,13.7028506 68.594786,16.7474999 C68.6347516,18.1008792 68.8999776,19.7249344 69.3868308,21.6269319 C69.8718674,23.530746 70.1370934,25.0094718 70.1788756,26.0667427 C70.2224744,27.6708151 69.7338046,28.4755762 68.7146827,28.4755762 C67.6119965,28.4755762 66.2967661,27.163979 64.7689916,24.5426014 C63.1576528,21.792244 62.2856768,19.1290841 62.1603303,16.5494887 C62.0749493,14.7292389 62.2529777,13.3340774 62.6925989,12.3621876 C59.7424137,12.2768066 57.6751041,12.7636598 56.49612,13.8209307 C55.4388491,14.7510383 54.9556291,16.2933458 55.0410101,18.4514862 C55.0809757,19.8048655 55.28807,21.1582448 55.6641096,22.5116241 C56.036516,23.8650034 56.2436103,25.0694202 56.2853924,26.1285076 C56.3707734,27.6926145 55.7985392,28.4755762 54.5705064,28.4755762 C53.511419,28.4755762 52.3669506,27.2693428 51.1407344,24.8586927 C49.9127017,22.4498592 49.2351037,19.9320287 49.1079405,17.310651 C49.0225596,14.9399664 49.1751553,13.2922953 49.5620947,12.3621876 C46.6591415,12.2768066 44.5972817,12.8890064 43.378332,14.1969703 C42.36466,15.29239 41.9032394,16.9582274 41.9886204,19.1944823 C42.0304026,20.2899021 42.2229639,21.8194932 42.5717543,23.7796225 C42.9205446,25.7415683 43.1149226,27.2693428 43.1548882,28.3665792 C43.2384525,29.1241083 43.0477078,29.5055977 42.5844706,29.5055977 C42.3301443,29.5055977 41.6107641,29.0768762 40.4263302,28.2212499 L38.9040055,29.9343192 C39.1165496,30.101448 40.4463129,31.3294807 42.9005619,33.6129677 C44.6772128,35.2606389 45.8816296,36.1071822 46.5156288,36.1489644 C47.6164984,36.2343454 48.5030072,35.7801912 49.1806052,34.786502 C49.8563865,33.7928128 50.1960938,32.6392613 50.1960938,31.3294807 C50.1960938,30.9062091 50.1543117,30.5047368 50.0707473,30.1232474 C50.7047465,31.0951372 51.4441094,31.9434971 52.2906527,32.6628773 C54.236249,34.3523306 56.4143722,35.3060543 58.8250223,35.5167818 C60.8977818,35.6857272 62.3765076,35.2006906 63.2666497,34.0580388 C63.9842133,33.1279311 64.3221039,31.7945346 64.2803218,30.0614824 C64.5764303,30.3139921 64.8943382,30.5901178 65.2340454,30.8862263 C66.2041187,32.0270615 67.1560257,32.9353697 68.0861334,33.6129677 C69.6502402,34.7556195 71.2815619,35.3896187 72.9710152,35.5167818 C75.0019925,35.6857272 76.4607356,35.2025072 77.3490611,34.0634886 C78.1084068,33.1370142 78.4481141,31.8090675 78.3645497,30.0832818 C78.3209509,28.9024811 78.0357421,27.1857784 77.5071067,24.9313573 C76.9766547,22.6769362 76.7150619,21.3835053 76.7150619,21.0456146 C76.6714631,20.1591057 76.7568441,19.5487226 76.9675716,19.2126485 C77.1801157,18.8747578 77.6851351,18.7076291 78.4898962,18.7076291 C79.0821132,18.7076291 80.1375674,19.3325452 81.6617087,20.5860106 C82.929707,21.6269319 83.9669951,22.6079048 84.7717562,23.5271128 L85.9761729,21.9430231" id="Shape" transform="translate(62.440089, 24.170720) scale(1, -1) translate(-62.440089, -24.170720) "></path>
            <path d="M95.3644471,28.996179 C95.4044127,30.1315644 94.9411755,30.7001653 93.9711023,30.7001653 C92.7031039,30.7001653 91.4151228,29.8263728 90.1071589,28.0806043 C88.7973784,26.3348358 88.1215971,24.661732 88.0798149,23.0631094 C88.0561989,23.0631094 88.0561989,22.7888004 88.0798149,22.2419988 C90.1489411,22.9995279 91.9437582,24.154896 93.4642663,25.713553 C94.6886658,27.0596658 95.3208484,28.1550856 95.3644471,28.996179 L95.3644471,28.996179 Z M109.764766,22.3727952 C108.53855,20.3436345 106.1279,18.3181071 102.532816,16.290763 C98.051223,13.7148008 93.5024152,12.4286363 88.8936591,12.4286363 C85.4693369,12.4286363 83.0132714,13.5694715 81.5345455,15.8529585 C80.4772747,17.4170653 79.9704387,19.2772806 80.0122209,21.4336044 C80.0540031,24.8579266 81.5781443,28.1133034 84.5810114,31.2015515 C87.8781704,34.5840915 91.769363,36.2771781 96.2527726,36.2771781 C100.398292,36.2771781 102.596398,34.5877247 102.850724,31.2142678 C103.019669,29.0633938 101.835235,26.8471217 99.2974219,24.5690845 C96.5906633,22.0785033 93.1845073,20.4980469 89.0844038,19.8240822 C89.8437495,18.768628 90.9845847,18.2418092 92.508726,18.2418092 C95.5533753,18.2418092 98.8741503,19.0156878 102.469234,20.5652617 C105.04883,21.653415 107.079807,22.7833505 108.56035,23.9550682 L109.764766,22.3727952 L109.764766,22.3727952 Z" id="Shape" transform="translate(94.887300, 24.352907) scale(1, -1) translate(-94.887300, -24.352907) "></path>
            <path d="M119.816106,26.6291277 C119.857888,27.7735961 119.699842,28.8217838 119.340152,29.7755075 C118.980462,30.7274146 118.46091,31.2070013 117.786945,31.2070013 C115.628804,31.2070013 113.852154,30.0407335 112.458809,27.7100145 C111.272558,25.8025672 110.636742,23.7679567 110.554995,21.6098162 C110.511396,20.5489122 110.70214,19.6151713 111.125412,18.8122268 C111.588649,17.8784859 112.244448,17.4134321 113.092808,17.4134321 C114.994805,17.4134321 116.62431,18.5342844 117.97769,20.7814391 C119.118525,22.6471043 119.730725,24.5963338 119.816106,26.6291277 L119.816106,26.6291277 Z M126.984474,26.3893343 C126.815529,22.5035916 125.378585,19.1464842 122.671827,16.3180123 C119.965068,13.4895404 116.600694,12.0743961 112.584155,12.0743961 C109.243397,12.0743961 106.705584,13.1516497 104.972532,15.3061569 C103.704534,16.9102293 103.005136,18.9157739 102.87979,21.3209742 C102.665429,24.9542073 103.977026,28.2895152 106.812764,31.3305313 C109.857414,34.7076214 113.683208,36.3970748 118.293781,36.3970748 C121.253049,36.3970748 123.494754,35.4033855 125.018895,33.4196403 C126.457656,31.6030237 127.111638,29.2595884 126.984474,26.3893343 L126.984474,26.3893343 Z" id="Shape" transform="translate(114.928601, 24.235735) scale(1, -1) translate(-114.928601, -24.235735) "></path>
        </g>
    </g>
</svg>